# xmcd
# Copyright (C) 1995-1998 Ti Kan
#
# Track frame offsets:
#       150
#       16910
#       33788
#       47941
#       65601
#       91487
#       103716
#       119060
#       135934
#       151934
#       167356
#       183246
#       205588
#       223665
#       251898
#       265316
#       287936
#       314996
#       333482
#
# Disc length: 4731 seconds
#
# Revision: 1
# Processed by: cddbd v1.5.2PL0 Copyright (c) Steve Scherf et al.
# Submitted via: CD-Transfer v1.0
#
DISCID=1c127913
DTITLE=New Wave - 
DYEAR=1900
DGENRE=
TTITLE0=Big Audio Dynamite Bottom Line, The
TTITLE1=Blondie Atomic
TTITLE2=Bow Wow Wow Do You Wanna Hold Me
TTITLE3=Chameleons, The Up The Down Escalator
TTITLE4=The Clash Rock The Casbah
TTITLE5=Dance Macabre Wet
TTITLE6=Defilm Yellow
TTITLE7=Generation X Dancing With Myself
TTITLE8=Haircut One Hundred Love Plus One
TTITLE9=Joy Division Disorder
TTITLE10=Lords Of The New Church Russian Roulette
TTITLE11=Madness Our House
TTITLE12=Magazine Shot By Both Side
TTITLE13=Oingo Boingo Dead Man's Party
TTITLE14=The Only Ones Another Girl, Another Planet
TTITLE15=Smith, Pati People Have The Power
TTITLE16=Romeo Void Never Say Never
TTITLE17=The Sisters Of Mercy This Corrosion
TTITLE18=Television Foxhole
EXTD=
EXTT0=
EXTT1=
EXTT2=
EXTT3=
EXTT4=
EXTT5=
EXTT6=
EXTT7=
EXTT8=
EXTT9=
EXTT10=
EXTT11=
EXTT12=
EXTT13=
EXTT14=
EXTT15=
EXTT16=
EXTT17=
EXTT18=
PLAYORDER=
